<svg width="1280" height="777" viewBox="0 0 1280 777" fill="none" xmlns="http://www.w3.org/2000/svg">
<rect y="57" width="1280" height="720" fill="#B0AEF8"/>
<path fill-rule="evenodd" clip-rule="evenodd" d="M0 108L53.3333 120C106.667 132 213.333 156 320 192C426.667 228 533.333 276 640 282C746.667 288 853.333 252 960 222C1066.67 192 1173.33 168 1226.67 156L1280 144V0H1226.67C1173.33 0 1066.67 0 960 0C853.333 0 746.667 0 640 0C533.333 0 426.667 0 320 0C213.333 0 106.667 0 53.3333 0H0V108Z" fill="#312FAD"/>
<path d="M715.8 120.516V121.742H709.644V120.516H715.8ZM709.878 115.625V127H708.37V115.625H709.878ZM717.112 115.625V127H715.612V115.625H717.112ZM729.35 120.953V121.672C729.35 122.526 729.243 123.292 729.03 123.969C728.816 124.646 728.509 125.221 728.108 125.695C727.707 126.169 727.225 126.531 726.662 126.781C726.105 127.031 725.48 127.156 724.787 127.156C724.116 127.156 723.498 127.031 722.936 126.781C722.379 126.531 721.894 126.169 721.483 125.695C721.077 125.221 720.761 124.646 720.537 123.969C720.314 123.292 720.202 122.526 720.202 121.672V120.953C720.202 120.099 720.311 119.336 720.53 118.664C720.754 117.987 721.069 117.411 721.475 116.938C721.881 116.458 722.363 116.094 722.92 115.844C723.483 115.594 724.1 115.469 724.772 115.469C725.465 115.469 726.09 115.594 726.647 115.844C727.209 116.094 727.691 116.458 728.092 116.938C728.498 117.411 728.808 117.987 729.022 118.664C729.241 119.336 729.35 120.099 729.35 120.953ZM727.858 121.672V120.938C727.858 120.26 727.787 119.661 727.647 119.141C727.511 118.62 727.311 118.182 727.045 117.828C726.78 117.474 726.454 117.206 726.069 117.023C725.689 116.841 725.256 116.75 724.772 116.75C724.303 116.75 723.879 116.841 723.498 117.023C723.123 117.206 722.801 117.474 722.53 117.828C722.264 118.182 722.058 118.62 721.912 119.141C721.767 119.661 721.694 120.26 721.694 120.938V121.672C721.694 122.354 721.767 122.958 721.912 123.484C722.058 124.005 722.267 124.445 722.537 124.805C722.814 125.159 723.139 125.427 723.514 125.609C723.894 125.792 724.319 125.883 724.787 125.883C725.277 125.883 725.712 125.792 726.092 125.609C726.472 125.427 726.793 125.159 727.053 124.805C727.319 124.445 727.519 124.005 727.655 123.484C727.79 122.958 727.858 122.354 727.858 121.672ZM732.884 115.625H734.345L738.072 124.898L741.791 115.625H743.259L738.634 127H737.494L732.884 115.625ZM732.408 115.625H733.697L733.908 122.562V127H732.408V115.625ZM742.439 115.625H743.728V127H742.228V122.562L742.439 115.625ZM754.403 125.773V127H748.38V125.773H754.403ZM748.684 115.625V127H747.177V115.625H748.684ZM753.606 120.516V121.742H748.38V120.516H753.606ZM754.325 115.625V116.859H748.38V115.625H754.325Z" fill="#B0AEF8"/>
<path d="M810.7 116.633L806.934 127H805.395L809.731 115.625H810.723L810.7 116.633ZM813.856 127L810.083 116.633L810.059 115.625H811.052L815.403 127H813.856ZM813.661 122.789V124.023H807.27V122.789H813.661ZM821.781 121.68H818.898L818.883 120.469H821.5C821.932 120.469 822.31 120.396 822.633 120.25C822.956 120.104 823.206 119.896 823.383 119.625C823.565 119.349 823.656 119.021 823.656 118.641C823.656 118.224 823.576 117.885 823.414 117.625C823.258 117.359 823.016 117.167 822.688 117.047C822.365 116.922 821.953 116.859 821.453 116.859H819.234V127H817.727V115.625H821.453C822.036 115.625 822.557 115.685 823.016 115.805C823.474 115.919 823.862 116.102 824.18 116.352C824.503 116.596 824.747 116.909 824.914 117.289C825.081 117.669 825.164 118.125 825.164 118.656C825.164 119.125 825.044 119.549 824.805 119.93C824.565 120.305 824.232 120.612 823.805 120.852C823.383 121.091 822.888 121.245 822.32 121.312L821.781 121.68ZM821.711 127H818.305L819.156 125.773H821.711C822.19 125.773 822.596 125.69 822.93 125.523C823.268 125.357 823.526 125.122 823.703 124.82C823.88 124.513 823.969 124.151 823.969 123.734C823.969 123.312 823.893 122.948 823.742 122.641C823.591 122.333 823.354 122.096 823.031 121.93C822.708 121.763 822.292 121.68 821.781 121.68H819.633L819.648 120.469H822.586L822.906 120.906C823.453 120.953 823.917 121.109 824.297 121.375C824.677 121.635 824.966 121.969 825.164 122.375C825.367 122.781 825.469 123.229 825.469 123.719C825.469 124.427 825.313 125.026 825 125.516C824.693 126 824.258 126.37 823.695 126.625C823.133 126.875 822.471 127 821.711 127ZM837.253 120.953V121.672C837.253 122.526 837.146 123.292 836.933 123.969C836.719 124.646 836.412 125.221 836.011 125.695C835.61 126.169 835.128 126.531 834.566 126.781C834.008 127.031 833.383 127.156 832.691 127.156C832.019 127.156 831.402 127.031 830.839 126.781C830.282 126.531 829.797 126.169 829.386 125.695C828.98 125.221 828.665 124.646 828.441 123.969C828.217 123.292 828.105 122.526 828.105 121.672V120.953C828.105 120.099 828.214 119.336 828.433 118.664C828.657 117.987 828.972 117.411 829.378 116.938C829.784 116.458 830.266 116.094 830.823 115.844C831.386 115.594 832.003 115.469 832.675 115.469C833.368 115.469 833.993 115.594 834.55 115.844C835.113 116.094 835.594 116.458 835.995 116.938C836.402 117.411 836.711 117.987 836.925 118.664C837.144 119.336 837.253 120.099 837.253 120.953ZM835.761 121.672V120.938C835.761 120.26 835.691 119.661 835.55 119.141C835.415 118.62 835.214 118.182 834.948 117.828C834.683 117.474 834.357 117.206 833.972 117.023C833.592 116.841 833.159 116.75 832.675 116.75C832.206 116.75 831.782 116.841 831.402 117.023C831.027 117.206 830.704 117.474 830.433 117.828C830.167 118.182 829.961 118.62 829.816 119.141C829.67 119.661 829.597 120.26 829.597 120.938V121.672C829.597 122.354 829.67 122.958 829.816 123.484C829.961 124.005 830.17 124.445 830.441 124.805C830.717 125.159 831.042 125.427 831.417 125.609C831.797 125.792 832.222 125.883 832.691 125.883C833.18 125.883 833.615 125.792 833.995 125.609C834.376 125.427 834.696 125.159 834.956 124.805C835.222 124.445 835.422 124.005 835.558 123.484C835.693 122.958 835.761 122.354 835.761 121.672ZM846.819 115.625H848.319V123.32C848.319 124.174 848.129 124.885 847.748 125.453C847.368 126.021 846.863 126.448 846.233 126.734C845.608 127.016 844.928 127.156 844.194 127.156C843.423 127.156 842.725 127.016 842.1 126.734C841.48 126.448 840.988 126.021 840.623 125.453C840.264 124.885 840.084 124.174 840.084 123.32V115.625H841.577V123.32C841.577 123.914 841.686 124.404 841.905 124.789C842.123 125.174 842.428 125.461 842.819 125.648C843.215 125.836 843.673 125.93 844.194 125.93C844.72 125.93 845.178 125.836 845.569 125.648C845.965 125.461 846.272 125.174 846.491 124.789C846.709 124.404 846.819 123.914 846.819 123.32V115.625ZM855.689 115.625V127H854.205V115.625H855.689ZM859.345 115.625V116.859H850.556V115.625H859.345ZM866.766 115.625H868.227L871.953 124.898L875.672 115.625H877.141L872.516 127H871.375L866.766 115.625ZM866.289 115.625H867.578L867.789 122.562V127H866.289V115.625ZM876.32 115.625H877.609V127H876.109V122.562L876.32 115.625ZM888.284 125.773V127H882.261V125.773H888.284ZM882.566 115.625V127H881.058V115.625H882.566ZM887.488 120.516V121.742H882.261V120.516H887.488ZM888.206 115.625V116.859H882.261V115.625H888.206Z" fill="#B0AEF8"/>
<path d="M943.506 123.562L945.764 115.625H946.858L946.225 118.711L943.795 127H942.709L943.506 123.562ZM941.17 115.625L942.967 123.406L943.506 127H942.428L939.67 115.625H941.17ZM949.78 123.398L951.537 115.625H953.045L950.295 127H949.217L949.78 123.398ZM947.022 115.625L949.217 123.562L950.014 127H948.928L946.584 118.711L945.944 115.625H947.022ZM964.275 120.953V121.672C964.275 122.526 964.168 123.292 963.955 123.969C963.741 124.646 963.434 125.221 963.033 125.695C962.632 126.169 962.15 126.531 961.587 126.781C961.03 127.031 960.405 127.156 959.712 127.156C959.041 127.156 958.423 127.031 957.861 126.781C957.304 126.531 956.819 126.169 956.408 125.695C956.002 125.221 955.686 124.646 955.462 123.969C955.239 123.292 955.127 122.526 955.127 121.672V120.953C955.127 120.099 955.236 119.336 955.455 118.664C955.679 117.987 955.994 117.411 956.4 116.938C956.806 116.458 957.288 116.094 957.845 115.844C958.408 115.594 959.025 115.469 959.697 115.469C960.39 115.469 961.015 115.594 961.572 115.844C962.134 116.094 962.616 116.458 963.017 116.938C963.423 117.411 963.733 117.987 963.947 118.664C964.166 119.336 964.275 120.099 964.275 120.953ZM962.783 121.672V120.938C962.783 120.26 962.712 119.661 962.572 119.141C962.436 118.62 962.236 118.182 961.97 117.828C961.705 117.474 961.379 117.206 960.994 117.023C960.614 116.841 960.181 116.75 959.697 116.75C959.228 116.75 958.804 116.841 958.423 117.023C958.048 117.206 957.726 117.474 957.455 117.828C957.189 118.182 956.983 118.62 956.837 119.141C956.692 119.661 956.619 120.26 956.619 120.938V121.672C956.619 122.354 956.692 122.958 956.837 123.484C956.983 124.005 957.192 124.445 957.462 124.805C957.739 125.159 958.064 125.427 958.439 125.609C958.819 125.792 959.244 125.883 959.712 125.883C960.202 125.883 960.637 125.792 961.017 125.609C961.397 125.427 961.718 125.159 961.978 124.805C962.244 124.445 962.444 124.005 962.58 123.484C962.715 122.958 962.783 122.354 962.783 121.672ZM967.333 115.625H971.098C971.953 115.625 972.674 115.755 973.262 116.016C973.856 116.276 974.307 116.661 974.614 117.172C974.927 117.677 975.083 118.299 975.083 119.039C975.083 119.56 974.976 120.036 974.762 120.469C974.554 120.896 974.252 121.26 973.856 121.562C973.466 121.859 972.997 122.081 972.45 122.227L972.028 122.391H968.489L968.473 121.164H971.145C971.687 121.164 972.137 121.07 972.497 120.883C972.856 120.69 973.127 120.432 973.309 120.109C973.492 119.786 973.583 119.43 973.583 119.039C973.583 118.602 973.497 118.219 973.325 117.891C973.153 117.562 972.882 117.31 972.512 117.133C972.148 116.951 971.677 116.859 971.098 116.859H968.841V127H967.333V115.625ZM973.981 127L971.216 121.844L972.786 121.836L975.591 126.906V127H973.981ZM979.5 115.625V127H977.992V115.625H979.5ZM986.367 115.625L981.641 120.93L978.984 123.688L978.734 122.078L980.734 119.875L984.555 115.625H986.367ZM984.914 127L980.703 121.453L981.602 120.258L986.711 127H984.914ZM1001.04 120.516V121.742H994.881V120.516H1001.04ZM995.116 115.625V127H993.608V115.625H995.116ZM1002.35 115.625V127H1000.85V115.625H1002.35ZM1007.45 115.625V127H1005.94V115.625H1007.45ZM1017.05 124.125C1017.05 123.859 1017.01 123.625 1016.93 123.422C1016.85 123.214 1016.71 123.026 1016.5 122.859C1016.31 122.693 1016.03 122.534 1015.68 122.383C1015.33 122.232 1014.88 122.078 1014.35 121.922C1013.79 121.755 1013.28 121.57 1012.82 121.367C1012.37 121.159 1011.98 120.922 1011.66 120.656C1011.34 120.391 1011.09 120.086 1010.92 119.742C1010.75 119.398 1010.66 119.005 1010.66 118.562C1010.66 118.12 1010.75 117.711 1010.93 117.336C1011.12 116.961 1011.38 116.635 1011.72 116.359C1012.06 116.078 1012.47 115.859 1012.94 115.703C1013.42 115.547 1013.94 115.469 1014.53 115.469C1015.38 115.469 1016.11 115.633 1016.7 115.961C1017.3 116.284 1017.75 116.708 1018.07 117.234C1018.38 117.755 1018.54 118.312 1018.54 118.906H1017.04C1017.04 118.479 1016.94 118.102 1016.76 117.773C1016.58 117.44 1016.3 117.18 1015.93 116.992C1015.56 116.799 1015.1 116.703 1014.53 116.703C1013.99 116.703 1013.55 116.784 1013.2 116.945C1012.85 117.107 1012.59 117.326 1012.42 117.602C1012.25 117.878 1012.17 118.193 1012.17 118.547C1012.17 118.786 1012.22 119.005 1012.32 119.203C1012.42 119.396 1012.58 119.576 1012.79 119.742C1013.01 119.909 1013.29 120.062 1013.62 120.203C1013.96 120.344 1014.36 120.479 1014.83 120.609C1015.48 120.792 1016.04 120.995 1016.5 121.219C1016.97 121.443 1017.36 121.695 1017.66 121.977C1017.97 122.253 1018.19 122.568 1018.34 122.922C1018.49 123.271 1018.57 123.667 1018.57 124.109C1018.57 124.573 1018.47 124.992 1018.29 125.367C1018.1 125.742 1017.83 126.062 1017.48 126.328C1017.13 126.594 1016.71 126.799 1016.22 126.945C1015.74 127.086 1015.2 127.156 1014.6 127.156C1014.07 127.156 1013.55 127.083 1013.04 126.938C1012.54 126.792 1012.08 126.573 1011.66 126.281C1011.25 125.99 1010.92 125.63 1010.67 125.203C1010.42 124.771 1010.3 124.271 1010.3 123.703H1011.8C1011.8 124.094 1011.88 124.43 1012.03 124.711C1012.18 124.987 1012.38 125.216 1012.65 125.398C1012.91 125.581 1013.21 125.716 1013.54 125.805C1013.88 125.888 1014.23 125.93 1014.6 125.93C1015.12 125.93 1015.57 125.857 1015.93 125.711C1016.3 125.565 1016.57 125.357 1016.76 125.086C1016.96 124.815 1017.05 124.495 1017.05 124.125ZM1025.49 115.625V127H1024.01V115.625H1025.49ZM1029.15 115.625V116.859H1020.36V115.625H1029.15ZM1040.17 120.953V121.672C1040.17 122.526 1040.07 123.292 1039.85 123.969C1039.64 124.646 1039.33 125.221 1038.93 125.695C1038.53 126.169 1038.05 126.531 1037.49 126.781C1036.93 127.031 1036.31 127.156 1035.61 127.156C1034.94 127.156 1034.32 127.031 1033.76 126.781C1033.2 126.531 1032.72 126.169 1032.31 125.695C1031.9 125.221 1031.59 124.646 1031.36 123.969C1031.14 123.292 1031.03 122.526 1031.03 121.672V120.953C1031.03 120.099 1031.14 119.336 1031.35 118.664C1031.58 117.987 1031.89 117.411 1032.3 116.938C1032.71 116.458 1033.19 116.094 1033.75 115.844C1034.31 115.594 1034.92 115.469 1035.6 115.469C1036.29 115.469 1036.91 115.594 1037.47 115.844C1038.03 116.094 1038.52 116.458 1038.92 116.938C1039.32 117.411 1039.63 117.987 1039.85 118.664C1040.07 119.336 1040.17 120.099 1040.17 120.953ZM1038.68 121.672V120.938C1038.68 120.26 1038.61 119.661 1038.47 119.141C1038.34 118.62 1038.14 118.182 1037.87 117.828C1037.6 117.474 1037.28 117.206 1036.89 117.023C1036.51 116.841 1036.08 116.75 1035.6 116.75C1035.13 116.75 1034.7 116.841 1034.32 117.023C1033.95 117.206 1033.63 117.474 1033.35 117.828C1033.09 118.182 1032.88 118.62 1032.74 119.141C1032.59 119.661 1032.52 120.26 1032.52 120.938V121.672C1032.52 122.354 1032.59 122.958 1032.74 123.484C1032.88 124.005 1033.09 124.445 1033.36 124.805C1033.64 125.159 1033.96 125.427 1034.34 125.609C1034.72 125.792 1035.14 125.883 1035.61 125.883C1036.1 125.883 1036.54 125.792 1036.92 125.609C1037.3 125.427 1037.62 125.159 1037.88 124.805C1038.14 124.445 1038.34 124.005 1038.48 123.484C1038.62 122.958 1038.68 122.354 1038.68 121.672ZM1043.23 115.625H1047C1047.85 115.625 1048.57 115.755 1049.16 116.016C1049.76 116.276 1050.21 116.661 1050.51 117.172C1050.83 117.677 1050.98 118.299 1050.98 119.039C1050.98 119.56 1050.88 120.036 1050.66 120.469C1050.45 120.896 1050.15 121.26 1049.76 121.562C1049.37 121.859 1048.9 122.081 1048.35 122.227L1047.93 122.391H1044.39L1044.37 121.164H1047.05C1047.59 121.164 1048.04 121.07 1048.4 120.883C1048.76 120.69 1049.03 120.432 1049.21 120.109C1049.39 119.786 1049.48 119.43 1049.48 119.039C1049.48 118.602 1049.4 118.219 1049.22 117.891C1049.05 117.562 1048.78 117.31 1048.41 117.133C1048.05 116.951 1047.58 116.859 1047 116.859H1044.74V127H1043.23V115.625ZM1049.88 127L1047.12 121.844L1048.69 121.836L1051.49 126.906V127H1049.88ZM1054.04 115.625L1056.99 121.336L1059.95 115.625H1061.67L1057.74 122.75V127H1056.24V122.75L1052.31 115.625H1054.04Z" fill="#B0AEF8"/>
<path d="M1120.33 123.383H1121.83C1121.75 124.102 1121.54 124.745 1121.21 125.312C1120.88 125.88 1120.4 126.331 1119.8 126.664C1119.19 126.992 1118.43 127.156 1117.51 127.156C1116.85 127.156 1116.24 127.031 1115.69 126.781C1115.15 126.531 1114.69 126.177 1114.3 125.719C1113.9 125.255 1113.6 124.701 1113.39 124.055C1113.18 123.404 1113.08 122.68 1113.08 121.883V120.75C1113.08 119.953 1113.18 119.232 1113.39 118.586C1113.6 117.935 1113.91 117.378 1114.3 116.914C1114.7 116.451 1115.19 116.094 1115.75 115.844C1116.31 115.594 1116.94 115.469 1117.65 115.469C1118.51 115.469 1119.23 115.63 1119.83 115.953C1120.42 116.276 1120.88 116.724 1121.21 117.297C1121.54 117.865 1121.75 118.523 1121.83 119.273H1120.33C1120.25 118.742 1120.12 118.286 1119.92 117.906C1119.72 117.521 1119.44 117.224 1119.08 117.016C1118.71 116.807 1118.24 116.703 1117.65 116.703C1117.14 116.703 1116.7 116.799 1116.31 116.992C1115.93 117.185 1115.61 117.458 1115.35 117.812C1115.09 118.167 1114.9 118.591 1114.77 119.086C1114.64 119.581 1114.58 120.13 1114.58 120.734V121.883C1114.58 122.44 1114.63 122.964 1114.75 123.453C1114.87 123.943 1115.05 124.372 1115.29 124.742C1115.53 125.112 1115.83 125.404 1116.2 125.617C1116.57 125.826 1117.01 125.93 1117.51 125.93C1118.15 125.93 1118.67 125.828 1119.05 125.625C1119.43 125.422 1119.71 125.13 1119.9 124.75C1120.1 124.37 1120.24 123.914 1120.33 123.383ZM1133.44 120.953V121.672C1133.44 122.526 1133.33 123.292 1133.12 123.969C1132.91 124.646 1132.6 125.221 1132.2 125.695C1131.8 126.169 1131.31 126.531 1130.75 126.781C1130.19 127.031 1129.57 127.156 1128.88 127.156C1128.2 127.156 1127.59 127.031 1127.02 126.781C1126.47 126.531 1125.98 126.169 1125.57 125.695C1125.17 125.221 1124.85 124.646 1124.63 123.969C1124.4 123.292 1124.29 122.526 1124.29 121.672V120.953C1124.29 120.099 1124.4 119.336 1124.62 118.664C1124.84 117.987 1125.16 117.411 1125.56 116.938C1125.97 116.458 1126.45 116.094 1127.01 115.844C1127.57 115.594 1128.19 115.469 1128.86 115.469C1129.55 115.469 1130.18 115.594 1130.74 115.844C1131.3 116.094 1131.78 116.458 1132.18 116.938C1132.59 117.411 1132.9 117.987 1133.11 118.664C1133.33 119.336 1133.44 120.099 1133.44 120.953ZM1131.95 121.672V120.938C1131.95 120.26 1131.88 119.661 1131.74 119.141C1131.6 118.62 1131.4 118.182 1131.13 117.828C1130.87 117.474 1130.54 117.206 1130.16 117.023C1129.78 116.841 1129.35 116.75 1128.86 116.75C1128.39 116.75 1127.97 116.841 1127.59 117.023C1127.21 117.206 1126.89 117.474 1126.62 117.828C1126.35 118.182 1126.15 118.62 1126 119.141C1125.86 119.661 1125.78 120.26 1125.78 120.938V121.672C1125.78 122.354 1125.86 122.958 1126 123.484C1126.15 124.005 1126.36 124.445 1126.63 124.805C1126.9 125.159 1127.23 125.427 1127.6 125.609C1127.98 125.792 1128.41 125.883 1128.88 125.883C1129.37 125.883 1129.8 125.792 1130.18 125.609C1130.56 125.427 1130.88 125.159 1131.14 124.805C1131.41 124.445 1131.61 124.005 1131.74 123.484C1131.88 122.958 1131.95 122.354 1131.95 121.672ZM1145.25 115.625V127H1143.73L1138 118.227V127H1136.5V115.625H1138L1143.75 124.422V115.625H1145.25ZM1152.69 115.625V127H1151.2V115.625H1152.69ZM1156.34 115.625V116.859H1147.55V115.625H1156.34ZM1162.42 116.633L1158.65 127H1157.11L1161.45 115.625H1162.44L1162.42 116.633ZM1165.57 127L1161.8 116.633L1161.78 115.625H1162.77L1167.12 127H1165.57ZM1165.38 122.789V124.023H1158.99V122.789H1165.38ZM1176.22 123.383H1177.72C1177.64 124.102 1177.43 124.745 1177.1 125.312C1176.77 125.88 1176.3 126.331 1175.69 126.664C1175.08 126.992 1174.32 127.156 1173.4 127.156C1172.74 127.156 1172.13 127.031 1171.58 126.781C1171.04 126.531 1170.58 126.177 1170.19 125.719C1169.8 125.255 1169.49 124.701 1169.28 124.055C1169.07 123.404 1168.97 122.68 1168.97 121.883V120.75C1168.97 119.953 1169.07 119.232 1169.28 118.586C1169.49 117.935 1169.8 117.378 1170.19 116.914C1170.59 116.451 1171.08 116.094 1171.64 115.844C1172.2 115.594 1172.83 115.469 1173.54 115.469C1174.4 115.469 1175.12 115.63 1175.72 115.953C1176.31 116.276 1176.77 116.724 1177.1 117.297C1177.43 117.865 1177.64 118.523 1177.72 119.273H1176.22C1176.14 118.742 1176.01 118.286 1175.81 117.906C1175.61 117.521 1175.33 117.224 1174.97 117.016C1174.6 116.807 1174.13 116.703 1173.54 116.703C1173.03 116.703 1172.59 116.799 1172.2 116.992C1171.82 117.185 1171.5 117.458 1171.24 117.812C1170.99 118.167 1170.79 118.591 1170.66 119.086C1170.53 119.581 1170.47 120.13 1170.47 120.734V121.883C1170.47 122.44 1170.52 122.964 1170.64 123.453C1170.76 123.943 1170.94 124.372 1171.18 124.742C1171.42 125.112 1171.72 125.404 1172.09 125.617C1172.46 125.826 1172.9 125.93 1173.4 125.93C1174.05 125.93 1174.56 125.828 1174.94 125.625C1175.32 125.422 1175.6 125.13 1175.8 124.75C1175.99 124.37 1176.13 123.914 1176.22 123.383ZM1184.54 115.625V127H1183.06V115.625H1184.54ZM1188.2 115.625V116.859H1179.41V115.625H1188.2ZM1196.76 115.625V127H1195.25V115.625H1196.76ZM1209.05 115.625V127H1207.53L1201.81 118.227V127H1200.3V115.625H1201.81L1207.56 124.422V115.625H1209.05ZM1214.03 115.625V127H1212.52V115.625H1214.03ZM1218.8 120.742V121.977H1213.7V120.742H1218.8ZM1219.57 115.625V116.859H1213.7V115.625H1219.57ZM1230.92 120.953V121.672C1230.92 122.526 1230.82 123.292 1230.6 123.969C1230.39 124.646 1230.08 125.221 1229.68 125.695C1229.28 126.169 1228.8 126.531 1228.24 126.781C1227.68 127.031 1227.05 127.156 1226.36 127.156C1225.69 127.156 1225.07 127.031 1224.51 126.781C1223.95 126.531 1223.47 126.169 1223.06 125.695C1222.65 125.221 1222.33 124.646 1222.11 123.969C1221.89 123.292 1221.78 122.526 1221.78 121.672V120.953C1221.78 120.099 1221.88 119.336 1222.1 118.664C1222.33 117.987 1222.64 117.411 1223.05 116.938C1223.45 116.458 1223.94 116.094 1224.49 115.844C1225.06 115.594 1225.67 115.469 1226.35 115.469C1227.04 115.469 1227.66 115.594 1228.22 115.844C1228.78 116.094 1229.26 116.458 1229.67 116.938C1230.07 117.411 1230.38 117.987 1230.6 118.664C1230.81 119.336 1230.92 120.099 1230.92 120.953ZM1229.43 121.672V120.938C1229.43 120.26 1229.36 119.661 1229.22 119.141C1229.08 118.62 1228.88 118.182 1228.62 117.828C1228.35 117.474 1228.03 117.206 1227.64 117.023C1227.26 116.841 1226.83 116.75 1226.35 116.75C1225.88 116.75 1225.45 116.841 1225.07 117.023C1224.7 117.206 1224.37 117.474 1224.1 117.828C1223.84 118.182 1223.63 118.62 1223.49 119.141C1223.34 119.661 1223.27 120.26 1223.27 120.938V121.672C1223.27 122.354 1223.34 122.958 1223.49 123.484C1223.63 124.005 1223.84 124.445 1224.11 124.805C1224.39 125.159 1224.71 125.427 1225.09 125.609C1225.47 125.792 1225.89 125.883 1226.36 125.883C1226.85 125.883 1227.29 125.792 1227.67 125.609C1228.05 125.427 1228.37 125.159 1228.63 124.805C1228.89 124.445 1229.09 124.005 1229.23 123.484C1229.36 122.958 1229.43 122.354 1229.43 121.672Z" fill="#B0AEF8"/>
<line x1="1112" y1="138.5" x2="1232" y2="138.5" stroke="#B0AEF8"/>
</svg>
